<?xml version="1.0" standalone="no"?>
<!DOCTYPE svg PUBLIC "-//W3C//DTD SVG 20010904//EN"
 "http://www.w3.org/TR/2001/REC-SVG-20010904/DTD/svg10.dtd">
<svg version="1.0" xmlns="http://www.w3.org/2000/svg"
 width="512.000000pt" height="512.000000pt" viewBox="0 0 512.000000 512.000000"
 preserveAspectRatio="xMidYMid meet">
<metadata>
Created by potrace 1.11, written by Peter Selinger 2001-2013
</metadata>
<g transform="translate(0.000000,512.000000) scale(0.100000,-0.100000)"
fill="#000000" stroke="none">
<path d="M2389 4796 c-2 -2 -33 -6 -69 -10 -164 -15 -453 -84 -565 -135 -11
-5 -49 -22 -85 -37 -337 -143 -670 -406 -891 -704 -253 -342 -369 -623 -445
-1085 -10 -62 -12 -392 -3 -475 14 -126 19 -155 44 -271 43 -192 127 -421 218
-588 171 -317 445 -611 757 -814 85 -55 258 -145 360 -187 30 -12 64 -26 75
-31 110 -46 348 -103 522 -125 121 -16 473 -9 588 11 275 48 490 119 700 230
79 42 228 132 265 162 8 6 51 40 95 74 246 192 463 464 610 764 103 209 178
437 201 605 3 25 8 48 10 51 10 16 19 179 18 329 0 174 -9 289 -30 394 -2 11
-7 35 -9 51 -3 17 -17 72 -31 124 -148 550 -476 1002 -950 1311 -153 99 -342
190 -519 249 -73 24 -245 67 -300 75 -61 9 -97 15 -130 22 -32 6 -430 15 -436
10z m441 -301 c96 -14 239 -48 265 -62 10 -6 -2 -17 -43 -39 -31 -17 -155 -85
-274 -152 l-218 -120 -162 90 c-90 50 -183 102 -208 115 -149 82 -171 96 -163
103 12 10 211 53 323 69 92 13 378 10 480 -4z m-966 -316 c111 -62 217 -121
236 -132 19 -11 64 -36 99 -55 36 -19 99 -54 140 -78 l76 -43 0 -148 1 -148
-96 -69 c-52 -38 -131 -96 -175 -129 -162 -119 -480 -349 -495 -357 -16 -8
-273 68 -289 86 -7 8 -18 57 -38 164 -2 14 -10 57 -18 95 -8 39 -17 87 -21
109 -3 21 -7 46 -9 55 -7 34 -45 228 -50 260 -3 19 -7 37 -9 40 -2 3 -7 28
-10 55 -4 27 -8 53 -9 57 -3 12 105 110 196 177 67 49 254 170 266 171 3 1 95
-49 205 -110z m1700 51 c180 -110 371 -267 362 -299 -3 -9 -7 -32 -10 -51 -3
-19 -26 -138 -50 -265 -25 -126 -58 -294 -73 -373 l-28 -142 -85 -27 c-47 -14
-111 -34 -142 -43 l-57 -18 -230 167 c-126 91 -239 173 -251 181 -11 8 -83 60
-158 115 l-137 100 0 147 c0 81 3 149 5 151 5 4 304 170 450 250 36 20 117 65
180 101 63 36 117 66 120 66 3 0 50 -27 104 -60z m-2559 -830 c3 -19 7 -46 10
-60 3 -14 7 -34 9 -45 2 -11 14 -73 27 -139 l23 -119 -50 -45 c-27 -24 -78
-72 -114 -106 -168 -157 -282 -261 -291 -265 -6 -2 -8 17 -4 50 3 30 8 77 11
104 16 153 78 401 124 502 11 24 20 45 20 48 0 14 86 178 133 253 l52 83 22
-113 c12 -62 25 -129 28 -148z m3237 136 c153 -262 239 -540 263 -851 l7 -80
-48 45 c-26 25 -57 54 -69 65 -12 11 -78 72 -146 136 -68 64 -141 132 -163
151 l-38 35 37 189 c20 104 38 196 40 204 1 8 11 61 21 118 19 103 19 103 37
81 10 -13 37 -54 59 -93z m-1463 -373 c119 -86 281 -204 361 -261 80 -58 149
-108 153 -112 4 -3 -8 -56 -27 -116 -46 -146 -233 -725 -240 -744 -5 -13 -66
-15 -463 -15 l-458 1 -16 49 c-102 296 -267 820 -261 824 27 19 301 218 323
235 14 12 36 28 49 36 25 17 133 96 265 193 50 37 92 67 94 67 1 0 100 -71
220 -157z m1267 -518 c191 -179 280 -261 343 -320 94 -87 93 -85 85 -130 -21
-129 -127 -443 -167 -496 -8 -10 -35 -19 -72 -23 -33 -4 -71 -9 -85 -11 -14
-2 -47 -6 -75 -10 -27 -3 -61 -8 -75 -10 -14 -2 -52 -6 -85 -10 -115 -12 -150
-16 -165 -20 -8 -2 -46 -7 -85 -11 -38 -3 -77 -8 -85 -9 -8 -1 -42 -5 -75 -9
l-60 -6 -78 110 c-74 105 -78 112 -68 143 27 88 209 649 249 772 l47 139 105
33 c58 18 116 36 130 40 19 6 30 3 50 -17 15 -14 89 -83 166 -155z m-2640 138
l123 -37 71 -216 c38 -118 106 -325 150 -460 44 -135 80 -251 80 -257 0 -13
-144 -218 -160 -228 -4 -3 -39 -1 -77 4 -37 5 -93 13 -123 16 -30 4 -68 9 -85
11 -16 2 -52 6 -80 9 -27 4 -61 8 -75 10 -14 2 -68 9 -120 15 -52 6 -108 13
-125 15 -16 2 -57 7 -90 10 -33 4 -64 10 -69 12 -31 19 -132 297 -167 458
l-19 90 79 75 c43 41 109 104 147 139 38 36 127 119 198 185 167 158 199 186
210 186 5 0 64 -17 132 -37z m1722 -1252 c40 -55 75 -106 78 -114 4 -13 -44
-124 -166 -382 -21 -44 -49 -105 -63 -135 -112 -245 -126 -270 -149 -271 -13
0 -32 -3 -43 -6 -26 -7 -423 -7 -450 0 -11 3 -30 6 -43 6 -19 1 -30 16 -61 84
-21 45 -55 116 -74 158 -197 422 -247 534 -243 544 2 7 37 58 77 113 l73 101
496 0 496 1 72 -99z m-2005 -176 c32 -4 67 -8 77 -10 10 -2 50 -7 87 -10 37
-4 75 -9 84 -10 9 -2 40 -6 70 -10 100 -11 203 -25 204 -28 1 -1 10 -20 20
-42 10 -22 38 -83 63 -135 24 -52 57 -122 72 -155 15 -33 44 -95 64 -138 20
-43 36 -80 36 -82 0 -21 -277 113 -400 193 -147 96 -305 235 -418 368 -56 65
-62 78 -34 70 9 -3 43 -8 75 -11z m2944 -29 c-89 -116 -287 -295 -427 -387
-112 -74 -312 -179 -341 -179 -6 0 -20 -5 -32 -12 -21 -12 -47 -19 -47 -14 0
2 22 50 49 107 26 57 60 129 74 159 89 193 137 290 144 291 4 0 17 2 28 4 11
2 101 13 200 25 99 12 191 23 205 25 14 2 52 7 85 11 33 3 61 7 63 8 1 2 9 3
17 3 9 0 4 -13 -18 -41z"/>
</g>
</svg>
